HIERARCHY
ROOT Hips
{
    OFFSET 0.000000 0.000000 0.000000
    CHANNELS 6 Xposition Yposition Zposition Zrotation Xrotation Yrotation
    JOINT Spine
    {
        OFFSET -0.000000 7.236184 0.000000
        CHANNELS 3 Zrotation Xrotation Yrotation
        JOINT Spine1
        {
            OFFSET -0.000000 20.420147 0.000000
            CHANNELS 3 Zrotation Xrotation Yrotation
            JOINT Neck
            {
                OFFSET -0.000000 20.336288 1.848754
                CHANNELS 3 Zrotation Xrotation Yrotation
                JOINT Head
                {
                    OFFSET -0.000000 12.354461 -1.764923
                    CHANNELS 3 Zrotation Xrotation Yrotation
                    End Site
                    {
                        OFFSET -0.000000 22.061537 0.000000
                    }
                }
            }
            JOINT LeftShoulder
            {
                OFFSET 3.573296 18.396038 -0.314103
                CHANNELS 3 Zrotation Xrotation Yrotation
                JOINT LeftArm
                {
                    OFFSET 10.880760 0.000000 0.000000
                    CHANNELS 3 Zrotation Xrotation Yrotation
                    JOINT LeftForeArm
                    {
                        OFFSET 27.185530 0.000000 0.000000
                        CHANNELS 3 Zrotation Xrotation Yrotation
                        JOINT LeftHand
                        {
                            OFFSET 27.825975 0.000000 0.000000
                            CHANNELS 3 Zrotation Xrotation Yrotation
                            End Site
                            {
                                OFFSET 13.236923 0.000000 0.000000
                            }
                        }
                    }
                }
            }
            JOINT RightShoulder
            {
                OFFSET -3.474926 18.396038 -0.314103
                CHANNELS 3 Zrotation Xrotation Yrotation
                JOINT RightArm
                {
                    OFFSET -10.880760 0.000000 0.000000
                    CHANNELS 3 Zrotation Xrotation Yrotation
                    JOINT RightForeArm
                    {
                        OFFSET -27.185530 0.000000 0.000000
                        CHANNELS 3 Zrotation Xrotation Yrotation
                        JOINT RightHand
                        {
                            OFFSET -27.825975 0.000000 0.000000
                            CHANNELS 3 Zrotation Xrotation Yrotation
                            End Site
                            {
                                OFFSET -13.236923 0.000000 0.000000
                            }
                        }
                    }
                }
            }
        }
    }
    JOINT LeftUpLeg
    {
        OFFSET 8.824615 0.000000 0.000000
        CHANNELS 3 Zrotation Xrotation Yrotation
        JOINT LeftLeg
        {
            OFFSET -0.000000 -35.111282 0.000000
            CHANNELS 3 Zrotation Xrotation Yrotation
            JOINT LeftFoot
            {
                OFFSET -0.000000 -42.324711 0.000000
                CHANNELS 3 Zrotation Xrotation Yrotation
                JOINT LeftToeBase
                {
                    OFFSET -0.000000 -5.735999 13.236923
                    CHANNELS 3 Zrotation Xrotation Yrotation
                    End Site
                    {
                        OFFSET -0.000000 0.000000 3.529846
                    }
                }
            }
        }
    }
    JOINT RightUpLeg
    {
        OFFSET -8.824615 0.000000 0.000000
        CHANNELS 3 Zrotation Xrotation Yrotation
        JOINT RightLeg
        {
            OFFSET -0.000000 -35.111282 0.000000
            CHANNELS 3 Zrotation Xrotation Yrotation
            JOINT RightFoot
            {
                OFFSET -0.000000 -42.324711 0.000000
                CHANNELS 3 Zrotation Xrotation Yrotation
                JOINT RightToeBase
                {
                    OFFSET -0.000000 -5.735999 13.236923
                    CHANNELS 3 Zrotation Xrotation Yrotation
                    End Site
                    {
                        OFFSET -0.000000 0.000000 3.529846
                    }
                }
            }
        }
    }
}
MOTION
Frames:    4
Frame Time:    0.008333
2.371627    81.347893    103.011574    2.447755    -6.902351    -153.131134    -3.973248    -13.676984    1.471309    0.685986    6.099477    1.911452    -0.409167    13.753464    -5.576034    8.062154    -22.329033    -3.120914    -0.913062    17.239216    4.279497    -55.694897    40.027336    -30.545139    0.654467    -6.487166    -13.769816    15.241913    -5.952870    3.425333    5.698834    19.194942    -7.704414    44.942886    44.369175    36.282116    -2.114361    -10.629791    17.293121    -14.527175    -9.682261    -5.026245    4.061188    -16.089380    9.271359    -4.863027    24.560471    22.499184    -2.634679    -10.622306    -8.866975    -0.127290    -1.308070    0.141432    -6.088461    1.089356    1.357542    3.753788    3.027719    0.236592    -1.773773    -8.529785    -12.576519    -2.829190    -0.751263    3.063057    
2.402183    81.347725    103.026917    2.514374    -6.923951    -152.989304    -3.991116    -13.640771    1.488299    0.617259    6.110303    1.932923    -0.506042    13.710334    -5.861206    8.441713    -22.433712    -3.282034    -0.894585    17.227789    4.264219    -55.563061    40.156235    -30.649704    0.693613    -6.525501    -13.801250    15.319907    -5.978390    3.467043    5.742981    19.251410    -7.682046    45.041462    44.221069    36.201492    -1.850242    -11.579982    17.546949    -14.380901    -10.613058    -5.542240    4.101009    -16.169607    9.040011    -4.896329    24.543287    22.526787    -2.766347    -10.650826    -8.878700    -0.096536    -1.263360    0.107253    -6.019867    1.042113    1.276766    3.752714    3.038094    0.217228    -1.784771    -8.520124    -12.608324    -2.812534    -0.749105    3.045015    
2.431805    81.347740    103.042244    2.579621    -6.945092    -152.848145    -4.006826    -13.604079    1.505378    0.547278    6.120461    1.954263    -0.604708    13.670786    -6.142121    8.819476    -22.538265    -3.438562    -0.875310    17.216356    4.248741    -55.430950    40.283848    -30.753445    0.732453    -6.563283    -13.835184    15.395342    -6.003619    3.507096    5.786474    19.307516    -7.659265    45.145065    44.071190    36.116447    -1.579231    -12.559236    17.809708    -14.256470    -11.575420    -6.060274    4.138155    -16.249813    8.808916    -4.928523    24.527887    22.549664    -2.894176    -10.679389    -8.884762    -0.067322    -1.218594    0.074789    -5.953017    0.995663    1.195496    3.751295    3.048603    0.198496    -1.795355    -8.510058    -12.639745    -2.796105    -0.746841    3.027220    
2.459851    81.348068    103.057716    2.642777    -6.965727    -152.707230    -4.019248    -13.566494    1.522624    0.475365    6.129632    1.975467    -0.709910    13.634984    -6.416945    9.199002    -22.642220    -3.587343    -0.854699    17.204601    4.233389    -55.298286    40.410309    -30.856153    0.771211    -6.599990    -13.873950    15.466583    -6.028182    3.544387    5.829243    19.363541    -7.636322    45.258617    43.915764    36.022957    -1.297508    -13.586403    18.091991    -14.160601    -12.586452    -6.594808    4.170368    -16.330547    8.577057    -4.958221    24.515785    22.563786    -3.015474    -10.708322    -8.880383    -0.040951    -1.174058    0.045490    -5.888807    0.950572    1.113107    3.749254    3.059396    0.180541    -1.805356    -8.499309    -12.670970    -2.779975    -0.744187    3.009748    
